<?xml version="1.0" encoding="UTF-8" standalone="no"?>
<svg
   xmlns:dc="http://purl.org/dc/elements/1.1/"
   xmlns:cc="http://creativecommons.org/ns#"
   xmlns:rdf="http://www.w3.org/1999/02/22-rdf-syntax-ns#"
   xmlns:svg="http://www.w3.org/2000/svg"
   xmlns="http://www.w3.org/2000/svg"
   id="svg6186"
   version="1.1"
   viewBox="0 0 26.45834 7.0539097"
   height="7.0539098mm"
   width="26.45834mm">
  <defs
     id="defs6180" />
  <metadata
     id="metadata6183">
    <rdf:RDF>
      <cc:Work
         rdf:about="">
        <dc:format>image/svg+xml</dc:format>
        <dc:type
           rdf:resource="http://purl.org/dc/dcmitype/StillImage" />
        <dc:title></dc:title>
      </cc:Work>
    </rdf:RDF>
  </metadata>
  <g
     transform="translate(-49.464434,-170.7387)"
     id="layer1">
    <g
       style="fill:#ffffff"
       transform="translate(235.0327,10.329272)"
       id="layer1-70">
      <g
         style="fill:#ffffff"
         id="g15118"
         transform="translate(-22.900736,-88.829648)">
        <path
           style="fill:#ffffff;stroke-width:0.20742026"
           d="m -159.032,249.23908 c -2.00306,0 -3.63553,1.58143 -3.63553,3.52371 0,1.9485 1.63247,3.5302 3.63553,3.5302 2.00244,0 3.64241,-1.5817 3.64241,-3.5302 0,-1.94228 -1.63977,-3.52371 -3.64241,-3.52371 z m 0,0.95648 c 1.46563,0 2.65514,1.15035 2.65514,2.56723 6e-5,0.38178 -0.0875,0.74272 -0.24104,1.0683 z m 0,0 -2.40802,3.63472 c -0.15322,-0.32541 -0.24105,-0.68597 -0.24105,-1.06749 0,-1.41688 1.19007,-2.56723 2.64907,-2.56723 z m -10e-4,2.28122 1.59657,2.34036 c -0.44459,0.32487 -0.99594,0.51977 -1.59535,0.51977 -0.59729,0 -1.14778,-0.19513 -1.59171,-0.52057 z"
           id="path4491" />
        <path
           style="fill:#ffffff;stroke-width:0.20742026"
           d="m -150.55707,254.6928 h -1.1012 l -0.0518,-0.58908 h -1.18789 l -0.28437,0.58908 h -1.21216 l 2.05449,-3.60476 h 1.20449 z m -1.22129,-1.35716 -0.11595,-1.31173 h -0.0102 l -0.62309,1.31173 z"
           id="path4501" />
        <path
           style="fill:#ffffff;stroke-width:0.20742026"
           d="m -148.67328,252.26847 c 0.11595,-0.0886 0.2265,-0.15121 0.33145,-0.18897 0.10517,-0.0378 0.2373,-0.0564 0.39597,-0.0564 0.30263,0 0.53162,0.10143 0.68656,0.30532 0.15495,0.2039 0.23232,0.4667 0.23232,0.7882 0,0.41359 -0.11596,0.79089 -0.34723,1.13064 -0.23148,0.33955 -0.53764,0.50963 -0.91784,0.50963 -0.39181,0 -0.68282,-0.16199 -0.87303,-0.4866 l -0.0967,0.42251 h -0.94418 l 0.77451,-3.60455 h 1.01014 z m 0.12009,1.81575 c 0.14499,0 0.2711,-0.091 0.37751,-0.27296 0.10661,-0.18274 0.15992,-0.41235 0.15992,-0.68988 0,-0.29682 -0.11802,-0.44534 -0.35427,-0.44534 -0.17195,0 -0.30989,0.0987 -0.4138,0.29579 -0.10392,0.19726 -0.15599,0.41443 -0.15599,0.65234 0,0.15183 0.0392,0.26653 0.1174,0.3439 0.0788,0.0778 0.16842,0.11615 0.26923,0.11615 z"
           id="path4503" />
        <path
           style="fill:#ffffff;stroke-width:0.20742026"
           d="m -145.20252,252.08055 -0.56314,2.61203 h -1.01553 l 0.56335,-2.61203 z"
           id="path4505" />
        <path
           style="fill:#ffffff;stroke-width:0.20742026"
           d="m -142.85846,252.08055 -0.15349,0.71684 h -0.5283 l -0.19643,0.92302 c -0.0137,0.0396 -0.0208,0.0821 -0.0208,0.12673 0,0.11989 0.0788,0.17942 0.23626,0.17942 0.0502,0 0.15473,-0.0145 0.31403,-0.0446 l -0.15183,0.71311 c -0.3047,0.0408 -0.5283,0.0616 -0.67038,0.0616 -0.28313,0 -0.48412,-0.0677 -0.60235,-0.20224 -0.11823,-0.13461 -0.17734,-0.28147 -0.17734,-0.44118 0,-0.0527 0.0242,-0.19332 0.0732,-0.42251 l 0.19063,-0.89336 h -0.36735 l 0.14955,-0.71684 h 0.37107 l 0.0871,-0.40842 1.1319,-0.55941 -0.2066,0.96783 z"
           id="path4507" />
        <path
           style="fill:#ffffff;stroke-width:0.20742026"
           d="m -142.46789,252.79365 c 0.0608,-0.24641 0.20058,-0.43641 0.41858,-0.5702 0.21757,-0.13378 0.55505,-0.20057 1.012,-0.20057 0.51814,0 0.86826,0.0645 1.04954,0.19331 0.18129,0.12882 0.27214,0.3157 0.27214,0.56211 0,0.16408 -0.0459,0.43372 -0.13752,0.80978 -0.0848,0.35572 -0.12736,0.60359 -0.12736,0.74298 0,0.11781 0.0216,0.23853 0.0647,0.36174 h -0.98608 c -0.0232,-0.1033 -0.0346,-0.20265 -0.0346,-0.29786 -0.26467,0.24102 -0.56004,0.36174 -0.88589,0.36174 -0.3327,0 -0.57186,-0.0774 -0.71726,-0.2321 -0.14582,-0.15432 -0.21862,-0.33374 -0.21862,-0.53764 0,-0.2321 0.0649,-0.40924 0.19476,-0.53079 0.13047,-0.12154 0.29081,-0.2041 0.48122,-0.24786 0.19082,-0.0434 0.45093,-0.0819 0.78073,-0.11471 0.2935,-0.0311 0.48889,-0.062 0.58679,-0.091 0.0203,-0.0778 0.0303,-0.13732 0.0303,-0.17901 0,-0.0659 -0.0336,-0.11864 -0.10061,-0.15867 -0.067,-0.0394 -0.15619,-0.0595 -0.26715,-0.0595 -0.11595,0 -0.20991,0.0185 -0.28189,0.0554 -0.072,0.0372 -0.13524,0.11491 -0.19,0.23251 z m 1.63945,0.72701 c -0.46587,0.0782 -0.73925,0.14707 -0.82014,0.20659 -0.0813,0.06 -0.12196,0.13047 -0.12196,0.21157 0,0.0846 0.0292,0.15142 0.0869,0.20016 0.0579,0.0489 0.13254,0.0736 0.2238,0.0736 0.12736,0 0.25388,-0.0518 0.37875,-0.15557 0.12549,-0.10371 0.20929,-0.2823 0.25264,-0.53639 z"
           id="path4509" />
        <path
           style="fill:#ffffff;stroke-width:0.20742026"
           d="m -137.85528,252.26847 c 0.11595,-0.0886 0.22651,-0.15121 0.33146,-0.18897 0.10537,-0.0378 0.23729,-0.0564 0.39576,-0.0564 0.30304,0 0.53182,0.10143 0.68677,0.30532 0.15494,0.2039 0.2321,0.4667 0.2321,0.7882 0,0.41359 -0.11554,0.79089 -0.34722,1.13064 -0.23128,0.33955 -0.53764,0.50963 -0.91763,0.50963 -0.39181,0 -0.68304,-0.16199 -0.87324,-0.4866 l -0.0962,0.42251 h -0.94438 l 0.7745,-3.60455 h 1.00993 z m 0.1201,1.81575 c 0.14519,0 0.2713,-0.091 0.37771,-0.27296 0.10662,-0.18274 0.15971,-0.41235 0.15971,-0.68988 0,-0.29682 -0.11781,-0.44534 -0.35406,-0.44534 -0.17175,0 -0.30989,0.0987 -0.41381,0.29579 -0.10391,0.19726 -0.15597,0.41443 -0.15597,0.65234 0,0.15183 0.0392,0.26653 0.11761,0.3439 0.0782,0.0778 0.16821,0.11615 0.26881,0.11615 z"
           id="path4511" />
        <path
           style="fill:#ffffff;fill-opacity:1;stroke:none;stroke-width:0.15679014;stroke-linejoin:round;stroke-miterlimit:4;stroke-dasharray:none;stroke-opacity:1"
           d="m -144.89018,251.16845 a 0.6678645,0.65476909 0 0 1 -0.66786,0.65477 0.6678645,0.65476909 0 0 1 -0.66786,-0.65477 0.6678645,0.65476909 0 0 1 0.66786,-0.65476 0.6678645,0.65476909 0 0 1 0.66786,0.65476 z"
           id="path6045" />
      </g>
    </g>
  </g>
</svg>
