<?xml version="1.0" encoding="UTF-8"?>
<svg id="Camada_1" data-name="Camada 1" xmlns="http://www.w3.org/2000/svg" viewBox="0 0 1417.32 1417.32">
  <defs>
    <style>
      .cls-1 {
        fill: #fff;
        stroke-width: 0px;
      }
    </style>
  </defs>
  <path class="cls-1" d="M1341.38,204.72c-14-67.19-53.19-111.99-128.78-128.78-123.18-30.8-305.16-47.59-503.94-47.59s-380.75,16.8-503.94,47.59c-75.59,16.8-114.79,61.59-128.78,128.78-28,117.59-47.59,305.16-47.59,503.94s19.6,386.35,47.59,503.94c14,67.19,53.19,111.99,128.78,128.78,123.18,30.8,305.16,47.59,503.94,47.59s380.75-16.8,503.94-47.59c75.59-16.8,114.79-61.59,128.78-128.78,28-117.59,47.59-305.16,47.59-503.94s-19.6-386.35-47.59-503.94ZM1008.77,652.19l166.13-29.55v86.68h-166.13v-57.12ZM278.54,1096.1h-99.81v-340.81h99.81v340.81ZM228.63,719.82c-34.8,0-59.09-22.98-59.09-57.12s24.29-57.14,59.09-57.14,59.11,22.98,59.11,57.14-24.29,57.12-59.11,57.12ZM553.03,832.77h-86.68v139.21c0,36.13,14.44,51.88,46.62,51.88,15.11,0,28.24-1.97,35.47-3.93v76.17c-11.16,3.28-34.14,6.57-61.73,6.57-76.83,0-120.18-41.37-120.18-124.11v-145.78h-49.9v-77.48h49.9v-85.38l99.82-17.72v103.1h86.68v77.48ZM885.31,1096.1h-93.25l-1.31-35.45c-20.36,27.57-49.26,43.99-89.32,43.99-71.58,0-116.89-40.72-116.89-105.07,0-74.2,66.32-117.54,171.39-117.54,12.49,0,25.62.66,33.5,1.31,0-36.78-25.62-57.79-71.58-57.79-36.78,0-76.17,9.2-115.57,24.31v-80.12c40.06-15.11,81.43-22.98,131.33-22.98,97.2,0,151.7,51.88,151.7,149.06v200.28ZM1238.59,1096.1h-95.87l-1.31-36.77c-22.33,30.19-50.57,45.31-91.94,45.31-70.25,0-114.9-49.91-114.9-128.05v-221.3h99.81v204.88c0,41.37,17.73,63.7,50.57,63.7s53.85-26.26,53.85-67.63v-200.94h99.81v340.81Z"/>
  <path class="cls-1" d="M681.08,991.69c0,27.59,19.05,41.37,49.91,41.37,34.8,0,59.11-24.95,59.11-61.07v-26.92c-4.6-.66-17.08-1.33-24.96-1.33-53.85,0-84.05,16.42-84.05,47.94Z"/>
</svg>