<?xml version="1.0" encoding="utf-8"?>
<!-- Generator: Adobe Illustrator 22.1.0, SVG Export Plug-In . SVG Version: 6.00 Build 0)  -->
<svg version="1.1" id="Santander" xmlns="http://www.w3.org/2000/svg" xmlns:xlink="http://www.w3.org/1999/xlink" x="0px" y="0px"
	 viewBox="0 0 238.2 41.5" style="enable-background:new 0 0 238.2 41.5;" xml:space="preserve">
<style type="text/css">
	.st0{fill:#EA1D25;}
</style>
<title>Santander</title>
<path class="st0" d="M31.5,19.1c-0.1-1.5-0.5-3-1.3-4.3L23.4,2.9C22.9,2,22.5,1,22.3,0L22,0.5c-1.7,2.9-1.7,6.6,0,9.5l5.5,9.5
	c1.7,2.9,1.7,6.6,0,9.5l-0.3,0.5c-0.2-1-0.6-2-1.1-2.9l-5-8.7l-3.2-5.6c-0.5-0.9-0.9-1.9-1.1-2.9l-0.3,0.5c-1.7,2.9-1.7,6.5,0,9.5
	l0,0l5.5,9.5c1.7,2.9,1.7,6.6,0,9.5l-0.3,0.5c-0.2-1-0.6-2-1.1-2.9l-6.9-11.9c-0.9-1.6-1.3-3.4-1.3-5.2C5.1,20.8,0,24.9,0,29.6
	c0,6.6,9.8,11.9,21.9,11.9s21.9-5.3,21.9-11.9C43.9,25.1,38.9,21,31.5,19.1z M52.2,39.4c0.1-1.7,0.3-2.8,0.8-4.2
	c2.3,1.1,5.3,1.6,7.5,1.6c3.8,0,6-1.2,6-3.7c0-2.4-1.6-3.5-5.4-5.2L59,27.1c-3.9-1.7-6.5-3.9-6.5-8.2c0-4.7,3.3-7.7,9.9-7.7
	c2.7,0,5.2,0.4,7.5,1.2c-0.1,1.6-0.4,2.9-0.8,4.1c-2.2-0.8-4.9-1.2-6.8-1.2c-3.6,0-5.2,1.4-5.2,3.6c0,2.1,1.6,3.4,4.5,4.6l2.2,0.9
	c5.2,2.2,7.4,4.6,7.4,8.6c0,4.7-3.6,8-10.6,8C57.3,41,54.5,40.5,52.2,39.4z M93.3,19.7v20.6h-4.2l-0.2-2.5c-1.2,1.8-2.9,3-5.8,3
	c-5.4,0-9.1-4-9.1-10.9c0-7.2,3.9-11.4,11.5-11.4C88.5,18.6,91,18.9,93.3,19.7z M88.8,35.6V22.7c-0.9-0.2-2-0.2-3.3-0.2
	c-4.7,0-6.9,2.9-6.9,7.5c0,4.2,1.7,7.2,5.7,7.2C86.2,37.1,87.6,36.5,88.8,35.6z M116.5,26.5v13.8H112v-13c0-3.3-1.1-4.8-5.6-4.8
	c-1.1,0-2.3,0.1-3.6,0.3v17.5h-4.5V19.7c2.9-0.7,6.1-1.2,8.2-1.2C114.1,18.6,116.5,21.5,116.5,26.5z M129.1,37
	c1.3,0,2.6-0.2,3.5-0.6c-0.1,1.2-0.3,2.6-0.5,3.8c-1.2,0.5-2.6,0.7-3.8,0.7c-4.4,0-7.2-2-7.2-7V12.2c1.4-0.5,3.1-0.7,4.5-0.7v7.8
	h7.2c-0.1,1.4-0.2,2.7-0.4,3.9h-6.8v10.1C125.6,35.9,126.9,37,129.1,37z M153.4,19.7v20.6h-4.2l-0.2-2.5c-1.2,1.8-2.9,3-5.8,3
	c-5.4,0-9.1-4-9.1-10.9c0-7.2,3.9-11.4,11.5-11.4C148.6,18.6,151,18.9,153.4,19.7z M148.8,35.6V22.7c-0.9-0.2-2-0.2-3.3-0.2
	c-4.7,0-6.9,2.9-6.9,7.5c0,4.2,1.7,7.2,5.7,7.2C146.2,37.1,147.7,36.5,148.8,35.6z M176.6,26.5v13.8H172v-13c0-3.3-1.1-4.8-5.6-4.8
	c-1.1,0-2.3,0.1-3.6,0.3v17.5h-4.5V19.7c2.9-0.7,6.1-1.2,8.2-1.2C174.1,18.6,176.6,21.5,176.6,26.5z M199.5,11.5v28.8h-4.2l-0.2-2.6
	c-1.2,1.9-2.9,3.1-5.9,3.1c-5.4,0-9.1-4-9.1-10.9c0-7.2,3.9-11.4,11.5-11.4c1.2,0,2.3,0.1,3.4,0.3V12
	C196.4,11.6,198,11.5,199.5,11.5z M195,35.6V22.9c-1.2-0.2-2.4-0.4-3.6-0.4c-4.5,0-6.6,2.8-6.6,7.5c0,4.2,1.7,7.2,5.7,7.2
	C192.3,37.1,193.8,36.5,195,35.6z M222.3,31.5h-14.5c0.6,3.7,2.7,5.4,6.8,5.4c2.5,0,5-0.5,7.2-1.6c-0.2,1.2-0.4,2.8-0.7,4.1
	c-2.1,0.9-4.2,1.3-6.7,1.3c-7.6,0-11.2-4.2-11.2-11.2c0-6.1,2.8-11,10-11c6.5,0,9.3,4.2,9.3,9.4C222.5,29.3,222.5,30.3,222.3,31.5z
	 M207.8,27.7H218c0-3.4-1.8-5.4-4.9-5.4C209.8,22.4,208.1,24.2,207.8,27.7z M238.2,18.8c0,1.4-0.2,3-0.4,3.9
	c-1.1-0.1-2.1-0.2-3.4-0.2c-1.1,0-2.2,0.1-3.3,0.2v17.6h-4.5V19.7c1.9-0.7,5.2-1.2,7.7-1.2C235.6,18.6,237.2,18.6,238.2,18.8z"/>
</svg>
