<?xml version="1.0" encoding="UTF-8"?>
<svg id="Capa_1" data-name="Capa 1" xmlns="http://www.w3.org/2000/svg" viewBox="0 0 1366 201.13">
  <path d="M1115.75,164.5c-36.16-66.61-62.65-115.14-65.34-119.91-.85-1.52-2.4-4.11-4.9-7-1.97-2.28-3.74-3.82-4.2-4.2-4.01-3.35-9.13-2.8-22.39-2.8s-18.38-.55-22.39,2.8c-.46.38-2.23,1.92-4.2,4.2-2.18,2.52-3.73,4.93-4.9,7-2.69,4.77-29.08,53.51-65.08,120.37-.13.41-.43,1.52,0,2.8.67,1.98,2.54,2.7,2.8,2.8h22.39c.97-.43,2.21-1.09,3.5-2.1,1.25-.98,2.16-1.98,2.8-2.8,10.67-17.78,18.58-30.71,19.6-32.19.3-.43.95-1.37,2.1-2.1.5-.32.99-.52,1.4-.7.84-.36,1.57-.57,2.1-.7,3.03-9.1,6.07-18.2,9.1-27.29,7.7-13.76,15.4-27.53,23.09-41.29,1.17-.69,3.92-2.1,7.7-2.1,1.35,0,4.44.18,7.7,2.1,7.7,13.76,15.4,27.53,23.09,41.29h-61.59c-3.03,9.1-6.07,18.2-9.1,27.29,26.6.03,53.19.06,79.79.09.73.09,2.1.36,3.49,1.31,1.11.75,1.77,1.63,2.1,2.1,1.48,2.11,9.48,14.76,20.3,32.19.36.72,1,1.79,2.1,2.8,1.36,1.25,2.76,1.83,3.59,2.1,7.2,0,14.4,0,21.61,0,.28-.06,2.52-.62,3.5-2.8.66-1.46.37-2.82.25-3.26Z"/>
  <path d="M214.11,30.6h-14c-3.87,0-7,3.13-7,7v100.04L69.14,41.39l-4.8-3.8c-.24-.16-.47-.32-.71-.48l-2.09-1.62-.09.14c-.38-.25-.75-.51-1.13-.75-.04-.03-.08-.05-.12-.08-.34-.22-.68-.44-1.02-.65-.04-.03-.09-.05-.13-.08-.36-.22-.72-.43-1.08-.64-.07-.04-.13-.07-.2-.11-.33-.19-.67-.36-1.01-.54-.04-.02-.09-.05-.13-.07-.37-.18-.74-.35-1.11-.52-.08-.04-.17-.07-.25-.11-.36-.15-.72-.29-1.08-.42-.03-.01-.07-.02-.1-.04-.39-.13-.78-.25-1.19-.36-.1-.03-.19-.05-.29-.07-.41-.1-.83-.2-1.26-.27-.61-.1-1.22-.19-1.84-.25-.65-.06-1.3-.1-1.97-.1-12.37,0-22.39,10.03-22.39,22.39v110.57c0,3.87,3.13,7,7,7h14c3.87,0,7-3.13,7-7V63.53l123.97,96.24,4.8,3.8c.24.16.47.32.71.48l2.09,1.62.09-.14c.38.25.75.51,1.13.75.04.03.08.05.12.08.34.22.68.44,1.02.65.04.03.09.05.13.08.36.22.72.43,1.08.64.07.04.13.07.2.11.33.19.67.36,1.01.54.04.02.09.05.13.07.37.18.74.35,1.11.52.08.04.17.07.25.11.36.15.72.29,1.08.42.03.01.07.02.1.04.39.13.78.25,1.19.36.1.03.19.05.29.07.41.1.83.2,1.26.27.61.1,1.22.19,1.84.25.65.06,1.3.1,1.97.1,12.37,0,22.39-10.03,22.39-22.39V37.6c0-3.87-3.13-7-7-7Z"/>
  <path d="M438.06,58.59c3.87,0,7-3.13,7-7v-14c0-3.87-3.13-7-7-7h-146.97c-23.19,0-41.99,18.8-41.99,41.99v55.99c0,23.19,18.8,41.99,41.99,41.99h146.97c3.87,0,7-3.13,7-7v-14c0-3.87-3.13-7-7-7h-146.97c-7.73,0-14-6.27-14-14v-14h160.96c3.87,0,7-3.13,7-7v-14c0-3.87-3.13-7-7-7h-160.96v-14c0-7.73,6.27-14,14-14h146.97Z"/>
  <path d="M885.95,142.57h-146.97c-7.73,0-14-6.27-14-14V37.6c0-3.87-3.13-7-7-7h-14c-3.87,0-7,3.13-7,7v90.98c0,23.19,18.8,41.99,41.99,41.99h146.97c3.87,0,7-3.13,7-7v-14c0-3.87-3.13-7-7-7Z"/>
  <path d="M1314.17,167.67c.11-.04.23-.09.34-.13.42-.17.84-.35,1.26-.53.09-.04.18-.08.28-.13,1.35-.61,2.66-1.28,3.92-2.02.07-.04.14-.08.21-.12.38-.22.75-.46,1.13-.69.12-.08.24-.16.37-.24.36-.24.72-.47,1.08-.72.09-.06.18-.13.28-.2,1.13-.8,2.22-1.65,3.26-2.55.13-.12.27-.23.4-.35.29-.26.58-.52.86-.78.15-.14.3-.29.45-.43.27-.26.55-.53.81-.8.14-.14.27-.28.41-.43.48-.5.94-1.01,1.4-1.54.15-.17.3-.34.44-.51.22-.26.43-.52.64-.79.17-.21.34-.42.5-.64.2-.26.39-.52.58-.78.17-.24.34-.48.51-.72.17-.25.35-.5.52-.75.23-.35.46-.71.68-1.06.2-.32.39-.63.58-.96.19-.32.38-.65.56-.98.13-.24.26-.48.38-.72.16-.31.33-.62.48-.94.12-.24.24-.48.35-.72.17-.36.33-.71.49-1.08.09-.2.18-.4.27-.61.23-.55.45-1.1.66-1.67.06-.17.12-.35.18-.53.15-.42.29-.83.42-1.25.07-.22.14-.44.2-.67.12-.4.23-.8.34-1.2.06-.22.12-.43.17-.65.12-.49.24-.98.34-1.48.03-.12.06-.25.08-.37.13-.62.24-1.24.33-1.86.03-.18.05-.37.08-.55.07-.46.13-.92.18-1.38.02-.22.05-.44.07-.66.04-.45.08-.91.1-1.37.01-.2.03-.41.04-.61.03-.65.05-1.31.05-1.97,0-10.76-4.05-20.56-10.7-27.99,6.65-7.43,10.7-17.24,10.7-27.99,0-.66-.02-1.32-.05-1.97,0-.2-.02-.41-.04-.61-.03-.46-.06-.91-.1-1.37-.02-.22-.04-.44-.07-.66-.05-.46-.11-.92-.18-1.38-.03-.18-.05-.37-.08-.55-.1-.63-.21-1.25-.33-1.86-.03-.13-.06-.25-.08-.37-.11-.49-.22-.99-.34-1.48-.05-.22-.11-.43-.17-.65-.11-.4-.22-.8-.34-1.2-.07-.22-.13-.44-.2-.67-.13-.42-.28-.84-.42-1.25-.06-.18-.12-.35-.18-.53-.21-.56-.43-1.12-.66-1.67-.09-.2-.18-.4-.27-.61-.16-.36-.32-.72-.49-1.08-.11-.24-.23-.48-.35-.72-.16-.32-.32-.63-.48-.94-.13-.24-.25-.48-.38-.72-.18-.33-.37-.65-.56-.98-.19-.32-.38-.64-.58-.96-.22-.36-.45-.71-.68-1.06-.17-.25-.35-.5-.52-.75-.17-.24-.34-.48-.51-.72-.19-.26-.39-.52-.58-.78-.16-.22-.33-.43-.5-.64-.21-.26-.42-.53-.64-.79-.15-.17-.3-.34-.44-.51-.45-.52-.92-1.04-1.4-1.54-.14-.14-.27-.29-.41-.43-.27-.27-.54-.54-.81-.8-.15-.14-.3-.29-.45-.43-.28-.26-.57-.53-.86-.78-.13-.12-.27-.23-.4-.35-1.04-.9-2.13-1.75-3.26-2.55-.09-.07-.18-.13-.28-.2-.36-.25-.72-.49-1.08-.72-.12-.08-.24-.16-.37-.24-.37-.24-.75-.47-1.13-.69-.07-.04-.14-.08-.21-.12-1.27-.74-2.58-1.41-3.92-2.02-.09-.04-.18-.08-.28-.13-.42-.18-.83-.36-1.26-.53-.11-.05-.23-.09-.34-.13-.44-.17-.87-.34-1.32-.49-4.38-1.55-9.09-2.4-14-2.4h-153.96v139.97h153.96c4.91,0,9.62-.85,14-2.4.44-.16.88-.32,1.32-.49ZM1172.88,58.59h125.97c7.73,0,14,6.27,14,14s-6.27,14-14,14h-125.97v-27.99ZM1312.85,128.57c0,7.73-6.27,14-14,14h-125.97v-27.99h125.97c7.73,0,14,6.27,14,14h0Z"/>
  <path d="M544.09,107.98c-10.84,8.02-68.44,50.67-70.22,53.74-.58,1-.68,2.04-.68,2.04-.2,2.11,1.13,3.8,1.35,4.08.75.96,2.06,2.72,7.43,2.72,4.28,0,8.55,0,12.83,0,1.65-.13,4.03-.46,6.75-1.36.48-.16,1.4-.47,2.54-.97,2.41-1.04,4.27-2.21,5.56-3.12,16.65-12.7,33.31-25.4,49.96-38.1,3.32-4.78,3.03-11.24-.68-15.65-3.62-4.3-9.69-5.7-14.85-3.4Z"/>
  <path d="M598.4,107.98c10.84,8.02,68.44,50.67,70.22,53.74.58,1,.68,2.04.68,2.04.2,2.11-1.13,3.8-1.35,4.08-.75.96-2.06,2.72-7.43,2.72h-12.83c-1.65-.13-4.03-.46-6.75-1.36-.48-.16-1.4-.47-2.54-.97-2.41-1.04-4.27-2.21-5.56-3.12-16.65-12.7-33.31-25.4-49.96-38.1-3.32-4.78-3.03-11.24.68-15.65,3.62-4.3,9.69-5.7,14.85-3.4Z"/>
  <path d="M598.54,93.19c10.84-8.02,68.44-50.67,70.22-53.74.58-1,.68-2.04.68-2.04.2-2.11-1.13-3.8-1.35-4.08-.75-.96-2.06-2.72-7.43-2.72-4.28,0-8.55,0-12.83,0-1.65.13-4.03.46-6.75,1.36-.48.16-1.4.47-2.54.97-2.41,1.04-4.27,2.21-5.56,3.12-16.65,12.7-33.31,25.4-49.96,38.1-3.32,4.78-3.03,11.24.68,15.65,3.62,4.3,9.69,5.7,14.85,3.4Z"/>
  <path d="M543.84,93.19c-10.84-8.02-68.44-50.67-70.22-53.74-.58-1-.68-2.04-.68-2.04-.2-2.11,1.13-3.8,1.35-4.08.75-.96,2.06-2.72,7.43-2.72,4.28,0,8.55,0,12.83,0,1.65.13,4.03.46,6.75,1.36.48.16,1.4.47,2.54.97,2.41,1.04,4.27,2.21,5.56,3.12,16.65,12.7,33.31,25.4,49.96,38.1,3.32,4.78,3.03,11.24-.68,15.65-3.62,4.3-9.69,5.7-14.85,3.4Z"/>
</svg>